<svg preserveAspectRatio="none" width="100%" height="100%" overflow="visible" style="display: block;" viewBox="0 0 196 195" fill="none" xmlns="http://www.w3.org/2000/svg">
<g id="arrow, hand drawn, scribble, doodle, swirl, curvy, wavy, 29">
<path id="Vector" d="M138.667 137.017C136.826 134.983 134.747 133.153 132.474 131.597C131.893 131.23 131.328 130.83 130.734 130.483C130.131 130.151 129.534 129.806 128.926 129.479L127.055 128.597C126.416 128.318 125.742 128.052 125.047 127.775C123.571 127.189 121.983 126.562 120.387 125.68C119.591 125.237 118.794 124.715 118.039 124.098C117.285 123.483 116.572 122.76 115.979 121.964C115.186 120.913 114.555 119.761 114.126 118.627C113.674 117.492 113.349 116.363 113.09 115.286C112.82 114.2 112.606 113.156 112.378 112.163C112.155 111.159 111.913 110.225 111.627 109.347C111.353 108.46 110.988 107.694 110.587 106.988L110.265 106.488C110.158 106.322 110.018 106.179 109.899 106.022C109.675 105.702 109.347 105.431 109.074 105.131C107.83 103.998 106.202 103.028 104.372 102.041C102.562 101.048 100.54 100.005 98.5881 98.4855C97.6159 97.7105 96.6751 96.8033 95.8541 95.744C95.0394 94.6849 94.3958 93.5045 93.9262 92.3151C92.9824 89.9214 92.6558 87.5465 92.448 85.3434C92.2472 83.1342 92.1796 81.0456 91.9668 79.1151C91.7148 76.7367 91.212 74.6319 90.1864 73.0966C89.6917 72.3132 89.0355 71.6714 88.2346 71.0557C87.4326 70.4472 86.4768 69.9 85.4194 69.3841C83.2883 68.3436 80.7826 67.46 78.1959 66.0475C76.9104 65.3339 75.5914 64.4612 74.4134 63.364L73.5617 62.5188L73.3516 62.3054L73.1644 62.0787L72.7918 61.6236C72.5535 61.3165 72.2779 61.0205 72.0754 60.7006L71.4377 59.7491C71.2139 59.4327 71.0521 59.1074 70.8647 58.7851C70.6876 58.4623 70.4908 58.1384 70.3326 57.8151C70.0245 57.1697 69.6856 56.5167 69.427 55.8778L69.0164 54.9151L68.6447 53.9669C68.389 53.3283 68.1741 52.7215 67.9391 52.0989C67.0405 49.6506 66.1955 47.3573 65.1102 45.4005L64.6812 44.7043L64.4685 44.3555C64.3967 44.2405 64.3124 44.1434 64.2355 44.036L63.7691 43.4027C63.6084 43.1992 63.427 43.0256 63.2598 42.8332C62.5905 42.0663 61.7909 41.4379 60.9319 40.8996C59.1952 39.8443 57.1066 39.232 54.8474 39.0069C52.1294 38.7223 49.1673 38.7405 46.2093 38.9931C43.3787 39.2447 41.377 38.9822 39.9968 38.3166C38.9929 37.838 38.8133 37.1354 39.4069 36.3806C40.0014 35.631 41.3667 34.8152 43.4792 34.2296C46.1458 33.4862 49.2251 33.0687 52.2223 33.1365C53.9466 33.1804 55.6957 33.3363 57.4458 33.6993C59.1916 34.0604 60.9441 34.6223 62.5891 35.4716C63.4128 35.8893 64.2093 36.3765 64.9545 36.9333C65.706 37.481 66.4098 38.0952 67.0448 38.7671L67.9759 39.7963C68.2582 40.1543 68.5228 40.5221 68.7948 40.8861C69.0801 41.2464 69.2915 41.6306 69.5318 42.006C69.7701 42.3827 70.003 42.7606 70.1957 43.1452C71.0455 44.6753 71.6823 46.2234 72.2912 47.7288C72.8983 49.2398 73.4414 50.7121 74.0311 52.1053C74.3178 52.8145 74.6331 53.472 74.9422 54.1394C75.274 54.7738 75.5966 55.4181 75.9689 55.9901L76.2373 56.4324L76.5327 56.8366L76.8259 57.2404C76.9202 57.3787 77.0204 57.5091 77.1322 57.6233L77.77 58.3434L78.4651 58.9691C80.4862 60.753 83.7565 61.6886 86.9322 63.3323C88.2019 63.9954 89.5304 64.7184 90.8347 65.6341C92.1356 66.5445 93.4096 67.6784 94.4435 69.0489C95.4649 70.4217 96.2078 71.9624 96.6797 73.4875C97.1714 75.0174 97.4154 76.5227 97.5937 77.9766C97.9224 80.8765 97.9343 83.5986 98.2182 86.0912C98.4846 88.5912 99.0583 90.7871 100.239 92.4696C101.13 93.7152 102.445 94.8107 104.054 95.8025C105.641 96.8077 107.459 97.7371 109.304 98.9091C109.763 99.1893 110.227 99.5286 110.686 99.8429C111.14 100.203 111.604 100.522 112.041 100.934C112.939 101.687 113.754 102.637 114.465 103.647C115.151 104.685 115.672 105.781 116.068 106.868C116.444 107.949 116.745 109.031 116.959 110.062C117.367 111.916 117.635 113.667 118.047 115.256C118.24 116.062 118.498 116.79 118.773 117.496C119.088 118.16 119.403 118.815 119.841 119.343C120.645 120.447 121.857 121.291 123.31 122.017C124.762 122.743 126.423 123.328 128.155 124.02C128.59 124.189 129.025 124.384 129.46 124.585L130.761 125.18C131.619 125.595 132.443 126.074 133.283 126.52C134.083 127.032 134.901 127.517 135.681 128.056L136.831 128.891L137.405 129.309C137.595 129.45 137.772 129.608 137.956 129.757C140.903 132.129 143.5 134.906 145.671 137.973C147.396 140.425 148.717 143.05 149.579 145.685C150.464 148.313 150.789 150.983 150.703 153.447C150.586 155.728 149.256 155.685 148.528 153.394C147.439 150.133 145.868 146.926 144.001 143.962C142.463 141.532 140.777 139.09 138.749 136.975C138.723 136.989 138.698 137.001 138.667 137.017Z" fill="var(--fill-0, black)"/>
</g>
</svg>
