<svg preserveAspectRatio="none" width="100%" height="100%" overflow="visible" style="display: block;" viewBox="0 0 92.3091 90.0037" fill="none" xmlns="http://www.w3.org/2000/svg">
<path id="Vector" d="M82.3468 76.6375C80.8246 75.1373 79.1058 73.7873 77.2263 72.6397C76.7462 72.3685 76.2793 72.0736 75.7876 71.8179C75.2895 71.5729 74.7957 71.3179 74.2933 71.0771L72.7465 70.4261C72.2177 70.2204 71.6603 70.024 71.0857 69.82C69.8654 69.3877 68.5524 68.9253 67.2334 68.2742C66.5748 67.9473 65.9161 67.5624 65.2921 67.1072C64.6685 66.6536 64.0792 66.1201 63.589 65.5328C62.9334 64.7576 62.4114 63.9079 62.0564 63.0712C61.6834 62.234 61.414 61.401 61.2 60.6065C60.9768 59.8058 60.8002 59.0353 60.6117 58.303C60.4274 57.5626 60.2275 56.8734 59.9909 56.2259C59.7641 55.571 59.4619 55.0064 59.1312 54.4857L58.8648 54.1167C58.7764 53.9937 58.6601 53.8888 58.5618 53.7726C58.3768 53.537 58.1055 53.3366 57.8801 53.1155C56.8512 52.2795 55.5053 51.5638 53.9925 50.8357C52.4962 50.1034 50.8244 49.3341 49.2103 48.2131C48.4065 47.6414 47.6287 46.9722 46.9498 46.1907C46.2762 45.4094 45.7441 44.5386 45.3559 43.6612C44.5756 41.8954 44.3055 40.1434 44.1337 38.5182C43.9677 36.8885 43.9118 35.3478 43.7359 33.9236C43.5276 32.1691 43.1119 30.6163 42.2638 29.4837C41.8548 28.9059 41.3123 28.4324 40.6502 27.9782C39.9871 27.5293 39.1969 27.1256 38.3226 26.7451C36.5606 25.9775 34.489 25.3256 32.3504 24.2837C31.2875 23.7572 30.197 23.1135 29.223 22.304L28.5189 21.6805L28.3451 21.5231L28.1904 21.3559L27.8823 21.0201C27.6853 20.7936 27.4575 20.5752 27.29 20.3393L26.7628 19.6373C26.5777 19.4039 26.4439 19.164 26.289 18.9262C26.1426 18.6881 25.9798 18.4491 25.8491 18.2106C25.5944 17.7345 25.3142 17.2528 25.1004 16.7815L24.7608 16.0713L24.4535 15.3718C24.2422 14.9007 24.0645 14.4531 23.8702 13.9938C23.1272 12.1877 22.4286 10.4959 21.5313 9.05243L21.1766 8.53882L21.0007 8.28153C20.9414 8.19669 20.8717 8.12505 20.8081 8.04582L20.4225 7.57859C20.2896 7.42849 20.1396 7.30044 20.0015 7.15849C19.4481 6.59278 18.787 6.1292 18.0767 5.73206C16.6408 4.95359 14.9141 4.50187 13.0462 4.33584C10.799 4.1259 8.34996 4.13931 5.90434 4.32565C3.56406 4.51131 1.90904 4.31766 0.767989 3.82661C-0.0620285 3.47357 -0.210562 2.95527 0.280253 2.39842C0.771782 1.84549 1.90059 1.24367 3.64712 0.811629C5.85187 0.263211 8.39777 -0.0447464 10.8758 0.00528499C12.3014 0.0376515 13.7475 0.152647 15.1945 0.420411C16.6379 0.686823 18.0868 1.10137 19.4469 1.72785C20.1279 2.03598 20.7864 2.3954 21.4026 2.80615C22.0239 3.21023 22.6057 3.66328 23.1308 4.15896L23.9006 4.91818C24.134 5.18229 24.3527 5.45362 24.5777 5.72213C24.8136 5.98791 24.9884 6.27133 25.187 6.5483C25.384 6.82616 25.5766 7.10494 25.7359 7.3887C26.4385 8.51745 26.965 9.65942 27.4684 10.77C27.9704 11.8846 28.4194 12.9707 28.907 13.9985C29.144 14.5217 29.4047 15.0067 29.6603 15.4991C29.9346 15.9671 30.2012 16.4423 30.5091 16.8644L30.731 17.1906L30.9753 17.4888L31.2176 17.7867C31.2956 17.8887 31.3785 17.9849 31.4709 18.0692L31.9982 18.6003L32.5729 19.0619C34.244 20.3779 36.9477 21.0681 39.5734 22.2807C40.6232 22.7698 41.7215 23.3032 42.7999 23.9787C43.8755 24.6503 44.9288 25.4868 45.7836 26.4977C46.628 27.5105 47.2423 28.647 47.6325 29.7721C48.039 30.9007 48.2407 32.0112 48.3881 33.0837C48.6599 35.223 48.6697 37.2311 48.9045 39.0698C49.1247 40.9141 49.5991 42.534 50.5755 43.7752C51.3121 44.6941 52.3995 45.5022 53.7296 46.2339C55.0415 46.9754 56.5446 47.661 58.0696 48.5256C58.4497 48.7323 58.8328 48.9826 59.2124 49.2144C59.5878 49.4801 59.9716 49.7152 60.3328 50.0192C61.0757 50.5749 61.7492 51.2759 62.3373 52.0204C62.9043 52.7868 63.3349 53.5952 63.6625 54.3968C63.9734 55.1945 64.2218 55.9924 64.3993 56.7534C64.7359 58.1208 64.9581 59.4122 65.2985 60.5847C65.4584 61.1795 65.6711 61.7164 65.8988 62.2371C66.1591 62.7269 66.42 63.2103 66.7819 63.5996C67.4462 64.4142 68.4485 65.037 69.6495 65.5722C70.8501 66.1075 72.2233 66.5395 73.6554 67.05C74.0155 67.1747 74.3751 67.3186 74.7343 67.467L75.8107 67.9053C76.5198 68.2115 77.2011 68.5652 77.8953 68.8943C78.557 69.2719 79.2333 69.6298 79.8782 70.0271L80.8291 70.6432L81.3038 70.9516C81.4608 71.0557 81.6069 71.1721 81.7589 71.2818C84.1957 73.032 86.3425 75.0803 88.1374 77.3428C89.5637 79.1521 90.6563 81.0881 91.3688 83.032C92.1 84.9706 92.3694 86.9406 92.298 88.7579C92.2011 90.4412 91.1015 90.4094 90.4999 88.7191C89.5992 86.3132 88.3001 83.9478 86.757 81.7612C85.4855 79.9687 84.091 78.1667 82.4145 76.6069C82.3927 76.6168 82.3722 76.626 82.3468 76.6375Z" fill="var(--fill-0, #6CFCE9)"/>
</svg>
