<svg preserveAspectRatio="none" width="100%" height="100%" overflow="visible" style="display: block;" viewBox="0 0 111.648 122.006" fill="none" xmlns="http://www.w3.org/2000/svg">
<path id="Vector" d="M99.599 103.887C97.7579 101.854 95.679 100.024 93.4057 98.468C92.825 98.1005 92.2603 97.7007 91.6656 97.354C91.0632 97.0219 90.4659 96.6763 89.8583 96.3499L87.9874 95.4674C87.3478 95.1885 86.6736 94.9223 85.9787 94.6457C84.5026 94.0598 82.9146 93.4329 81.3193 92.5503C80.5227 92.1072 79.726 91.5854 78.9712 90.9683C78.2169 90.3534 77.5042 89.6303 76.9113 88.8342C76.1184 87.7833 75.487 86.6315 75.0576 85.4973C74.6064 84.3624 74.2807 83.2332 74.0218 82.1563C73.7518 81.0708 73.5382 80.0263 73.3102 79.0337C73.0873 78.03 72.8455 77.0958 72.5594 76.2181C72.2851 75.3303 71.9196 74.5649 71.5195 73.8591L71.1974 73.3589C71.0904 73.1921 70.9498 73.0499 70.8309 72.8924C70.6071 72.5731 70.2789 72.3013 70.0064 72.0017C68.7619 70.8684 67.134 69.8982 65.3043 68.9112C63.4945 67.9185 61.4725 66.8757 59.5202 65.3561C58.5479 64.5811 57.6072 63.674 56.7861 62.6146C55.9714 61.5555 55.3278 60.3751 54.8583 59.1857C53.9145 56.792 53.5878 54.4172 53.38 52.2141C53.1793 50.0048 53.1116 47.9163 52.8989 45.9857C52.6469 43.6073 52.1441 41.5025 51.1184 39.9672C50.6237 39.1839 49.9675 38.5421 49.1666 37.9264C48.3647 37.3178 47.4089 36.7706 46.3515 36.2548C44.2203 35.2143 41.7146 34.3306 39.128 32.9182C37.8424 32.2046 36.5234 31.3319 35.3454 30.2346L34.4938 29.3894L34.2836 29.176L34.0964 28.9493L33.7239 28.4942C33.4856 28.1871 33.21 27.8911 33.0075 27.5713L32.3698 26.6197C32.146 26.3033 31.9841 25.978 31.7967 25.6557C31.6197 25.333 31.4228 25.0091 31.2646 24.6857C30.9566 24.0403 30.6177 23.3874 30.3591 22.7485L29.9484 21.7857L29.5767 20.8376C29.3211 20.1989 29.1062 19.5921 28.8712 18.9695C27.9725 16.5213 27.1275 14.2279 26.0423 12.2712L25.6132 11.575L25.4005 11.2262C25.3287 11.1112 25.2444 11.0141 25.1676 10.9067L24.7011 10.2733C24.5405 10.0698 24.359 9.89624 24.1919 9.70381C23.5226 8.93696 22.7229 8.30855 21.8639 7.77019C20.1272 6.71493 18.0387 6.10259 15.7795 5.87752C13.0614 5.59294 10.0993 5.61111 7.14134 5.86372C4.31075 6.11538 2.309 5.85288 0.928888 5.18722C-0.0750239 4.70865 -0.254677 4.00607 0.338968 3.25122C0.933475 2.50168 2.29877 1.68588 4.41122 1.10022C7.07788 0.356801 10.1572 -0.0606568 13.1544 0.00716416C14.8787 0.0510392 16.6277 0.206923 18.3779 0.569896C20.1237 0.931036 21.8761 1.49299 23.5211 2.34221C24.3448 2.7599 25.1413 3.24713 25.8865 3.80393C26.638 4.35169 27.3418 4.96582 27.9769 5.63775L28.908 6.66692C29.1903 7.02494 29.4548 7.39275 29.7269 7.75674C30.0122 8.11702 30.2236 8.50121 30.4639 8.87666C30.7021 9.25332 30.935 9.63123 31.1278 10.0159C31.9775 11.546 32.6143 13.094 33.2232 14.5994C33.8304 16.1104 34.3735 17.5827 34.9632 18.9759C35.2498 19.6852 35.5651 20.3426 35.8743 21.0101C36.2061 21.6445 36.5286 22.2887 36.901 22.8608L37.1693 23.303L37.4648 23.7072L37.7579 24.111C37.8523 24.2494 37.9525 24.3797 38.0643 24.494L38.702 25.214L39.3971 25.8397C41.4183 27.6237 44.6885 28.5593 47.8643 30.203C49.134 30.866 50.4624 31.589 51.7668 32.5047C53.0677 33.4151 54.3417 34.549 55.3756 35.9195C56.3969 37.2923 57.1398 38.833 57.6118 40.3581C58.1035 41.8881 58.3474 43.3933 58.5257 44.8472C58.8545 47.7472 58.8663 50.4693 59.1503 52.9618C59.4166 55.4618 59.9904 57.6578 61.1714 59.3402C62.0623 60.5858 63.3775 61.6814 64.9863 62.6731C66.5731 63.6783 68.3911 64.6077 70.2356 65.7797C70.6954 66.0599 71.1586 66.3992 71.6178 66.7135C72.0718 67.0736 72.536 67.3924 72.973 67.8045C73.8714 68.5577 74.686 69.508 75.3974 70.5172C76.0831 71.5561 76.604 72.652 77.0002 73.7386C77.3763 74.8198 77.6767 75.9015 77.8914 76.9331C78.2986 78.7867 78.5673 80.5372 78.979 82.1267C79.1724 82.933 79.4297 83.6608 79.7051 84.3666C80.0199 85.0306 80.3354 85.6858 80.7731 86.2135C81.5766 87.3178 82.7889 88.1621 84.2416 88.8875C85.6937 89.6133 87.3546 90.1988 89.0867 90.8908C89.5222 91.0599 89.9572 91.255 90.3916 91.4561L91.6935 92.0502C92.5512 92.4654 93.3752 92.9448 94.2148 93.3908C95.0152 93.9027 95.8332 94.3879 96.6132 94.9265L97.7633 95.7616L98.3375 96.1797C98.5274 96.3208 98.7041 96.4786 98.888 96.6273C101.835 98.9998 104.432 101.776 106.603 104.843C108.328 107.296 109.649 109.92 110.511 112.556C111.396 115.183 111.721 117.854 111.635 120.317C111.518 122.599 110.188 122.556 109.46 120.265C108.371 117.003 106.8 113.797 104.933 110.833C103.395 108.403 101.709 105.96 99.6809 103.846C99.6546 103.859 99.6297 103.872 99.599 103.887Z" fill="var(--fill-0, black)"/>
</svg>
