<svg preserveAspectRatio="none" width="100%" height="100%" overflow="visible" style="display: block;" viewBox="0 0 32.463 462.85" fill="none" xmlns="http://www.w3.org/2000/svg">
<path id="Vector 1" d="M9.1584 1.50041C1.32085 24.5246 1.28 47.0898 1.59249 56.9113C1.79232 63.192 6.53681 67.4826 15.4379 77.1324C17.5124 79.3813 18.1438 81.7893 18.5238 83.495C20.4086 91.9547 15.3386 104.202 16.2236 110.866C17.0042 116.744 18.9455 120.732 18.3604 123.544C18.0287 125.138 17.0255 126.705 16.9651 127.875C16.7177 132.67 20.4083 156.581 21.5073 177.831C22.5599 198.184 29.3845 209.547 29.9958 212.544C33.1043 227.783 15.9518 253.09 15.932 262.213C15.9177 268.815 17.8886 273.983 17.4714 277.762C16.9531 282.457 12.5986 287.822 9.40127 293.915C7.67476 297.205 13.3461 301.071 16.6401 303.9C17.8722 304.958 17.502 306.772 16.0077 309.452C12.0748 316.508 8.01519 321.576 6.53517 324.726C5.17925 327.612 5.07145 330.761 5.53412 334.461C6.30519 340.627 8.86476 348.268 13.3549 360.479C20.9155 381.04 27.8288 396.48 29.62 403.521C30.6895 409.353 31.0712 423.04 30.9371 442.369C30.7779 450.676 30.4337 455.933 30.0792 461.35" stroke="var(--stroke-0, #262321)" stroke-width="3" stroke-linecap="round"/>
</svg>
