<svg preserveAspectRatio="none" width="100%" height="100%" overflow="visible" style="display: block;" viewBox="0 0 41.577 668.643" fill="none" xmlns="http://www.w3.org/2000/svg">
<path id="Vector 1" d="M7.43735 2.50029C8.98229 4.88219 12.6133 11.6144 14.4143 18.5211C15.83 23.9498 15.6088 32.9788 15.6505 42.3795C15.6798 48.9911 11.156 68.0098 4.98871 94.5388C1.91553 107.758 2.15963 113.436 3.22243 119.231C6.7154 138.276 23.2471 145.82 31.3157 153.681C33.9709 156.267 26.8557 178.141 17.2724 206.293C9.43485 229.318 9.39401 251.883 9.7065 261.704C9.90633 267.985 14.6508 272.276 23.5519 281.925C25.6264 284.174 26.2578 286.582 26.6378 288.288C28.5226 296.748 23.4526 308.995 24.3376 315.659C25.1182 321.537 27.0595 325.525 26.4744 328.337C26.1427 329.931 25.1395 331.498 25.0791 332.668C24.8317 337.463 28.5223 361.374 29.6213 382.624C30.674 402.977 37.4985 414.34 38.1098 417.337C41.2183 432.576 24.0658 457.883 24.046 467.006C24.0317 473.608 26.0026 478.776 25.5854 482.555C25.0671 487.25 20.7126 492.616 17.5153 498.708C15.7888 501.998 21.4601 505.864 24.7541 508.693C25.9862 509.751 25.616 511.565 24.1218 514.246C20.1888 521.301 16.1292 526.369 14.6492 529.519C13.2933 532.405 13.1855 535.554 13.6481 539.254C14.4192 545.42 16.9788 553.061 21.4689 565.272C29.0296 585.833 35.9428 601.273 37.734 608.314C38.8035 614.147 39.1852 627.833 39.0511 647.162C38.8919 655.469 38.5478 660.726 38.1932 666.143" stroke="var(--stroke-0, #352128)" stroke-width="5" stroke-linecap="round"/>
</svg>
